<svg width="14" height="16" viewBox="0 0 14 16" fill="none" xmlns="http://www.w3.org/2000/svg">
<path d="M1 4H2.33333H13" stroke="#FF7373" stroke-width="1.5" stroke-linecap="round" stroke-linejoin="round"/>
<path d="M11.6654 4.00065V13.334C11.6654 13.6876 11.5249 14.0267 11.2748 14.2768C11.0248 14.5268 10.6857 14.6673 10.332 14.6673H3.66536C3.31174 14.6673 2.9726 14.5268 2.72256 14.2768C2.47251 14.0267 2.33203 13.6876 2.33203 13.334V4.00065M4.33203 4.00065V2.66732C4.33203 2.3137 4.47251 1.97456 4.72256 1.72451C4.9726 1.47446 5.31174 1.33398 5.66536 1.33398H8.33203C8.68565 1.33398 9.02479 1.47446 9.27484 1.72451C9.52489 1.97456 9.66536 2.3137 9.66536 2.66732V4.00065" stroke="#FF7373" stroke-width="1.5" stroke-linecap="round" stroke-linejoin="round"/>
<path d="M5.66797 7.33398V11.334" stroke="#FF7373" stroke-width="1.5" stroke-linecap="round" stroke-linejoin="round"/>
<path d="M8.33203 7.33398V11.334" stroke="#FF7373" stroke-width="1.5" stroke-linecap="round" stroke-linejoin="round"/>
</svg>
