<svg width="15" height="14" viewBox="0 0 15 14" fill="none" xmlns="http://www.w3.org/2000/svg">
<path d="M0.452831 7.79473C0.0133781 7.35527 0.0133781 6.6416 0.452831 6.20215L6.07783 0.577148C6.51728 0.137695 7.23096 0.137695 7.67041 0.577148C8.10986 1.0166 8.10986 1.73027 7.67041 2.16973L2.83994 7.0002L7.66689 11.8307C8.10635 12.2701 8.10635 12.9838 7.66689 13.4232C7.22744 13.8627 6.51377 13.8627 6.07432 13.4232L0.449314 7.79824L0.452831 7.79473ZM12.8278 13.4197L7.20283 7.79473C6.76338 7.35527 6.76338 6.6416 7.20283 6.20215L12.8278 0.577148C13.2673 0.137695 13.981 0.137695 14.4204 0.577148C14.8599 1.0166 14.8599 1.73027 14.4204 2.16973L9.58994 7.0002L14.4169 11.8307C14.8563 12.2701 14.8563 12.9838 14.4169 13.4232C13.9774 13.8627 13.2638 13.8627 12.8243 13.4232L12.8278 13.4197Z" fill="#A1B1CF"/>
</svg>
