<svg width="15" height="14" viewBox="0 0 15 14" fill="none" xmlns="http://www.w3.org/2000/svg">
<path d="M14.5452 6.20283C14.9847 6.64228 14.9847 7.35596 14.5452 7.79541L8.92022 13.4204C8.48076 13.8599 7.76709 13.8599 7.32764 13.4204C6.88818 12.981 6.88818 12.2673 7.32764 11.8278L12.1581 6.99736L7.33115 2.16689C6.8917 1.72744 6.8917 1.01377 7.33115 0.574316C7.77061 0.134863 8.48428 0.134863 8.92373 0.574316L14.5487 6.19932L14.5452 6.20283ZM2.17021 0.577832L7.79522 6.20283C8.23467 6.64228 8.23467 7.35596 7.79522 7.79541L2.17021 13.4204C1.73076 13.8599 1.01709 13.8599 0.577637 13.4204C0.138184 12.981 0.138184 12.2673 0.577637 11.8278L5.40811 6.99736L0.581152 2.16689C0.141699 1.72744 0.141699 1.01377 0.581152 0.574316C1.02061 0.134863 1.73428 0.134863 2.17373 0.574316L2.17021 0.577832Z" fill="#A1B1CF"/>
</svg>
